<svg xmlns="http://www.w3.org/2000/svg" viewBox="0 0 512 512" width="512" height="512">
  <defs>
    <linearGradient id="g" x1="0%" y1="0%" x2="100%" y2="100%">
      <stop offset="0%" style="stop-color:#3B82F6"/>
      <stop offset="100%" style="stop-color:#06B6D4"/>
    </linearGradient>
    <linearGradient id="bg" x1="0%" y1="0%" x2="0%" y2="100%">
      <stop offset="0%" style="stop-color:#0F172A"/>
      <stop offset="100%" style="stop-color:#0B1226"/>
    </linearGradient>
  </defs>

  <rect width="512" height="512" rx="112" fill="url(#bg)"/>

  <g transform="translate(256, 256)">
    <path d="M0,-150 L130,-75 L130,75 L0,150 L-130,75 L-130,-75 Z"
          fill="none" stroke="url(#g)" stroke-width="7" stroke-linejoin="round"/>

    <line x1="-66" y1="-66" x2="66" y2="66" stroke="url(#g)" stroke-width="10" stroke-linecap="round"/>
    <line x1="66" y1="-66" x2="-66" y2="66" stroke="url(#g)" stroke-width="10" stroke-linecap="round"/>

    <circle cx="0" cy="0" r="16" fill="url(#g)"/>
    <circle cx="0" cy="0" r="7" fill="#0F172A"/>

    <circle cx="-66" cy="-66" r="11" fill="#3B82F6"/>
    <circle cx="66" cy="-66" r="11" fill="#0EA5E9"/>
    <circle cx="66" cy="66" r="11" fill="#06B6D4"/>
    <circle cx="-66" cy="66" r="11" fill="#0EA5E9"/>

    <path d="M-66,-66 Q-86,0 -66,66" fill="none" stroke="#3B82F6" stroke-width="2.4" opacity="0.35"/>
    <path d="M66,-66 Q86,0 66,66" fill="none" stroke="#06B6D4" stroke-width="2.4" opacity="0.35"/>
  </g>
</svg>
