<svg xmlns="http://www.w3.org/2000/svg" enable-background="new 0 0 128 128" viewBox="0 0 128 128"><path fill="#2d3e50" d="M71.8 89.5c-4.9-1.2-12.9-3.2-16.2-4.2L40.8 95.4 26.1 85.3c-3.3.9-11.2 2.9-16.2 4.2-2.6.6-4.5 2.8-4.8 5.4-.8 6.3-2.4 24.5-2.4 24.5H79c0 0-1.6-18.2-2.4-24.5C76.2 92.3 74.3 90.1 71.8 89.5zM25 67.3c1.5 7.6 8.1 13.1 15.9 13.1s14.4-5.5 15.8-13.1l2.5-12.7c1.4-10.2-6.5-19.3-16.8-19.3h-2.9c-10.3 0-18.2 9.1-16.8 19.3L25 67.3z"/><path fill="#1d75b9" d="M71.3 40.6c1.5 7.6 8.1 13.1 15.9 13.1s14.4-5.5 15.8-13.1l2.5-12.7c1.4-10.2-6.5-19.3-16.8-19.3h-2.9c-10.3 0-18.2 9.1-16.8 19.3L71.3 40.6zM77 18c2.2-2.5 5.4-4 8.7-4h2.9c3.3 0 6.5 1.4 8.7 4 2.2 2.5 3.2 5.7 2.8 9l-2.4 12.5c-1 5-5.4 8.7-10.5 8.7-5.1 0-9.5-3.6-10.5-8.7L74.2 27C73.8 23.8 74.8 20.5 77 18zM122.9 68.2c-.3-2.6-2.2-4.8-4.8-5.4-4.9-1.2-12.9-3.2-16.2-4.1L87.2 68.7 72.4 58.7c-1.8.5-4.8 1.3-8 2.1l-1.1 5.9c2.8-.7 5.8-1.5 8.1-2.1l15.7 10.7 15.7-10.7c4.1 1.1 10.3 2.6 13.9 3.5.4.1.7.4.7.8.5 3.9 1.3 12.5 1.9 18.4H79.8c1.3 1.5 2.3 3.4 2.8 5.5h42.7C125.3 92.7 123.7 74.6 122.9 68.2z"/></svg>