<svg xmlns="http://www.w3.org/2000/svg" enable-background="new 0 0 68 68" viewBox="0 0 68 68"><path d="M50.91113,32.6084l7.90332,1.32422c0.05469,0.00928,0.17334,0.01904,0.22852,0.01904
		c0.36426,0,0.70752-0.14111,0.96729-0.39746c0.26367-0.26074,0.40869-0.6084,0.40869-0.979v-0.95947
		c0-4.02197-3.27246-7.29443-7.29443-7.29443h-0.95166c-1.58936,0-2.88232,1.29297-2.88232,2.88232v3.49023
		C49.29053,31.64551,49.97168,32.45068,50.91113,32.6084z M51.29053,27.20361c0-0.48633,0.396-0.88232,0.88232-0.88232h0.95166
		c2.91943,0,5.29443,2.375,5.29443,5.29443v0.22705l-7.12842-1.14893V27.20361z"/><path d="M64.99023,41.87842h-0.34027c0.29588-3.29814,0.20827-5.41661,0.21027-5.31201
		C64.57043,21.34393,55.57074,20.9043,54.54541,20.9043c-0.09473,0-0.16113,0.00293-0.17725,0.00391h-6.82422v-3.7583
		c0-1.66992-1.35889-3.02832-3.02881-3.02832H4.03271c-1.66992,0-3.02832,1.3584-3.02832,3.02832
		C1.00395,20.24734,1.00602,5.93088,1,47.43848c0,0.55225,0.44775,1,1,1h4.04834c0.28363,3.04675,2.85211,5.43994,5.97168,5.43994
		s5.68805-2.39319,5.97168-5.43994h31.24707c0.28363,3.04675,2.85211,5.43994,5.97168,5.43994s5.68805-2.39319,5.97168-5.43994
		h3.80811c1.1084,0,2.00977-0.90137,2.00977-2.00977v-2.54004C67,42.78027,66.09863,41.87842,64.99023,41.87842z M62.86304,37.58838
		c-0.00111,0.33231,0.01031,0.1128-0.01697,1h-2.05603v-1H62.86304z M54.39014,22.9082c0.02295,0,0.13232-0.00195,0.15527-0.00391
		c1.30902,0,7.70837,0.62994,8.27899,12.68408c-0.55259,0.12286-4.03436-0.68641-4.03436,2v1c0,1.10303,0.89697,2,2,2h1.94769
		c-0.02911,0.43048-0.05121,0.87225-0.09027,1.29004h-7.43701h-7.6665V22.9082H54.39014z M49.39258,46.43848H17.83789
		c-0.20719-0.84653-0.71738-1.84531-1.35986-2.56006c9.10441,0,25.86423,0,34.27441,0
		C50.10348,44.59986,49.60481,45.57355,49.39258,46.43848z M3.00439,17.1499c0-0.56689,0.46143-1.02832,1.02832-1.02832h40.48242
		c0.56738,0,1.02881,0.46143,1.02881,1.02832c-0.0004,2.52843,0.00145-9.15937-0.00391,24.72803H3.00439V17.1499z M3,43.87842
		h4.5625c-0.64922,0.72151-1.15014,1.70536-1.35986,2.56006H3V43.87842z M12.02002,51.87842c-2.20557,0-4-1.79443-4-4
		c0-0.10156,0.00684-0.20361,0.02686-0.3584c0.16748-2.04199,1.9126-3.6416,3.97314-3.6416c2.2291,0,4,1.86152,4,4
		C16.02002,50.08398,14.22559,51.87842,12.02002,51.87842z M55.21045,51.87842c-2.20557,0-4-1.79443-4-4c0-2.19522,1.80457-4,4-4
		c2.20778,0,4,1.84346,4,4C59.21045,50.08398,57.41602,51.87842,55.21045,51.87842z M65,46.42871
		c0,0.00781-0.00195,0.00977-0.00977,0.00977h-3.9624c-0.22715-0.92549-0.75793-1.88885-1.35596-2.55518L65,43.88867V46.42871z"/><path d="M55.2085 45.37793c-1.37842 0-2.5 1.12158-2.5 2.5s1.12158 2.5 2.5 2.5 2.5-1.12158 2.5-2.5S56.58691 45.37793 55.2085 45.37793zM55.2085 48.37793c-.27588 0-.5-.22412-.5-.5s.22412-.5.5-.5.5.22412.5.5S55.48438 48.37793 55.2085 48.37793zM12.02197 45.37793c-1.37842 0-2.5 1.12158-2.5 2.5s1.12158 2.5 2.5 2.5 2.5-1.12158 2.5-2.5S13.40039 45.37793 12.02197 45.37793zM12.02197 48.37793c-.27588 0-.5-.22412-.5-.5s.22412-.5.5-.5.5.22412.5.5S12.29785 48.37793 12.02197 48.37793zM8.98633 18.14941h-2.5c-.55225 0-1 .44775-1 1s.44775 1 1 1h2.5c.55225 0 1-.44775 1-1S9.53857 18.14941 8.98633 18.14941zM16.98633 18.14941h-4.5c-.55225 0-1 .44775-1 1s.44775 1 1 1h4.5c.55225 0 1-.44775 1-1S17.53857 18.14941 16.98633 18.14941z"/></svg>